<svg xmlns="http://www.w3.org/2000/svg" xmlns:xlink="http://www.w3.org/1999/xlink" width="180" height="48.228" viewBox="0 0 180 48.228"><defs><clipPath id="clip-path"><rect id="Rectangle_1" data-name="Rectangle 1" width="180" height="48.228" fill="#fff"></rect></clipPath></defs><g id="Final_logo" data-name="Final logo" clip-path="url(#clip-path)"><path id="Path_1" data-name="Path 1" d="M42.759,28.892a3.055,3.055,0,0,1,2.552,4.751,16.838,16.838,0,0,1-1.989,2.395l-7.285,7.285a16.741,16.741,0,0,1-23.674,0L4.9,35.861a16.741,16.741,0,0,1,0-23.674L12.186,4.9a16.741,16.741,0,0,1,23.674,0l7.462,7.462a16.655,16.655,0,0,1,1.937,2.322,2.99,2.99,0,0,1-4.675,3.7l-9.017-9.69a10.485,10.485,0,0,0-14.828,0L8.7,16.743a10.485,10.485,0,0,0,0,14.828l7.961,7.961a10.485,10.485,0,0,0,14.828,0l9.037-9.669A3.066,3.066,0,0,1,42.759,28.892Z" fill="#5b84fa"></path><path id="Path_2" data-name="Path 2" d="M33.258,28.237l-5.022,5.022a5.831,5.831,0,0,1-8.248,0l-5.022-5.022a5.831,5.831,0,0,1,0-8.248l5.022-5.022a5.831,5.831,0,0,1,8.248,0l5.022,5.022A5.831,5.831,0,0,1,33.258,28.237Z" fill="#a9eef5"></path><path id="Path_3" data-name="Path 3" d="M65.18,17.931a1,1,0,0,1,.572.769,1.158,1.158,0,0,1-.272.956.852.852,0,0,1-.628.374,1.458,1.458,0,0,1-.777-.15,4.789,4.789,0,0,0-.948-.318,4.7,4.7,0,0,0-1.041-.112,4.856,4.856,0,0,0-1.81.318,3.764,3.764,0,0,0-1.359.91,3.992,3.992,0,0,0-.854,1.4,5.232,5.232,0,0,0-.291,1.781,5.475,5.475,0,0,0,.328,1.987,3.871,3.871,0,0,0,.91,1.407,3.652,3.652,0,0,0,1.37.833,5.209,5.209,0,0,0,1.707.272,5.555,5.555,0,0,0,1.012-.094,3.476,3.476,0,0,0,.975-.337,1.333,1.333,0,0,1,.777-.131.982.982,0,0,1,.646.393,1.134,1.134,0,0,1,.272.966.989.989,0,0,1-.572.721,6.62,6.62,0,0,1-1,.4,7.562,7.562,0,0,1-1.041.243,6.738,6.738,0,0,1-1.068.085,7.589,7.589,0,0,1-2.561-.43A6.471,6.471,0,0,1,57.367,28.9a5.881,5.881,0,0,1-1.49-2.11,7.364,7.364,0,0,1-.545-2.935,7,7,0,0,1,.5-2.663,6.17,6.17,0,0,1,1.407-2.11A6.5,6.5,0,0,1,59.383,17.7a7.2,7.2,0,0,1,2.7-.5,6.958,6.958,0,0,1,1.613.187A6.455,6.455,0,0,1,65.18,17.931Z" fill="#fff"></path><path id="Path_4" data-name="Path 4" d="M77.2,25.414a5.288,5.288,0,0,1-.684,2.71,4.925,4.925,0,0,1-1.837,1.829,5.394,5.394,0,0,1-5.159,0,4.895,4.895,0,0,1-1.837-1.829,5.713,5.713,0,0,1,0-5.421,4.978,4.978,0,0,1,1.837-1.837,5.334,5.334,0,0,1,5.159,0A4.979,4.979,0,0,1,76.516,22.7,5.288,5.288,0,0,1,77.2,25.414Zm-2.251,0a3.408,3.408,0,0,0-.384-1.659,2.853,2.853,0,0,0-1.031-1.1,2.8,2.8,0,0,0-2.868,0,2.853,2.853,0,0,0-1.031,1.1,3.418,3.418,0,0,0-.384,1.659,3.366,3.366,0,0,0,.384,1.64,2.854,2.854,0,0,0,1.031,1.1,2.8,2.8,0,0,0,2.868,0,2.854,2.854,0,0,0,1.031-1.1A3.35,3.35,0,0,0,74.949,25.414Z" fill="#fff"></path><path id="Path_5" data-name="Path 5" d="M87.2,16.543a1.1,1.1,0,0,1,.806.318,1.118,1.118,0,0,1,.318.825v11.59a1.124,1.124,0,0,1-.318.815,1.154,1.154,0,0,1-1.613,0,1.124,1.124,0,0,1-.318-.815v-.919l.411.168a1.056,1.056,0,0,1-.262.59,3.528,3.528,0,0,1-.713.684,4.345,4.345,0,0,1-1.06.572,3.661,3.661,0,0,1-1.322.235,4.3,4.3,0,0,1-2.345-.665A4.661,4.661,0,0,1,79.123,28.1a5.734,5.734,0,0,1-.609-2.692,5.808,5.808,0,0,1,.609-2.71,4.728,4.728,0,0,1,1.64-1.837,4.142,4.142,0,0,1,2.288-.665,4.391,4.391,0,0,1,2.654.863,3.556,3.556,0,0,1,.769.759,1.211,1.211,0,0,1,.272.646l-.675.243V17.688a1.124,1.124,0,0,1,.318-.815A1.07,1.07,0,0,1,87.2,16.543Zm-3.789,12a2.549,2.549,0,0,0,1.445-.412,2.808,2.808,0,0,0,.966-1.125,3.6,3.6,0,0,0,.347-1.594,3.647,3.647,0,0,0-.347-1.613,2.777,2.777,0,0,0-.966-1.125,2.545,2.545,0,0,0-1.445-.412,2.516,2.516,0,0,0-1.426.412,2.808,2.808,0,0,0-.967,1.125,3.647,3.647,0,0,0-.347,1.613,3.6,3.6,0,0,0,.347,1.594,2.762,2.762,0,0,0,.967,1.125A2.521,2.521,0,0,0,83.407,28.544Z" fill="#fff"></path><path id="Path_6" data-name="Path 6" d="M95.39,30.608a5.522,5.522,0,0,1-2.767-.665,4.582,4.582,0,0,1-1.8-1.81,5.276,5.276,0,0,1-.628-2.588,5.7,5.7,0,0,1,.684-2.879,4.856,4.856,0,0,1,1.792-1.829,4.636,4.636,0,0,1,2.345-.638,4.28,4.28,0,0,1,1.81.393,4.9,4.9,0,0,1,1.509,1.079,5.318,5.318,0,0,1,1.041,1.584,4.827,4.827,0,0,1,.384,1.912.964.964,0,0,1-.355.732,1.2,1.2,0,0,1-.788.281H91.455L90.892,24.3h6.882l-.411.374v-.507a1.713,1.713,0,0,0-.384-.975,2.515,2.515,0,0,0-.863-.684,2.46,2.46,0,0,0-1.1-.254,3.558,3.558,0,0,0-1.05.15,2,2,0,0,0-.844.507,2.462,2.462,0,0,0-.563.956,4.755,4.755,0,0,0-.206,1.519,3.29,3.29,0,0,0,.422,1.717,2.865,2.865,0,0,0,1.087,1.068,2.9,2.9,0,0,0,1.416.366,4.357,4.357,0,0,0,1.106-.112,2.489,2.489,0,0,0,.665-.272c.168-.106.322-.2.459-.272a1.429,1.429,0,0,1,.638-.168.944.944,0,0,1,.956.938,1.168,1.168,0,0,1-.526.919,4.344,4.344,0,0,1-1.37.721A5.357,5.357,0,0,1,95.39,30.608Z" fill="#fff"></path><path id="Path_7" data-name="Path 7" d="M109.754,16.543a1.094,1.094,0,0,1,.806.318,1.118,1.118,0,0,1,.318.825v11.59a1.124,1.124,0,0,1-.318.815,1.155,1.155,0,0,1-1.613,0,1.124,1.124,0,0,1-.318-.815v-.919l.412.168a1.053,1.053,0,0,1-.262.59,3.55,3.55,0,0,1-.713.684,4.345,4.345,0,0,1-1.06.572,3.659,3.659,0,0,1-1.322.235,4.3,4.3,0,0,1-2.345-.665,4.66,4.66,0,0,1-1.658-1.837,5.727,5.727,0,0,1-.609-2.692,5.8,5.8,0,0,1,.609-2.71,4.725,4.725,0,0,1,1.64-1.837,4.142,4.142,0,0,1,2.288-.665,4.389,4.389,0,0,1,2.654.863,3.524,3.524,0,0,1,.769.759,1.212,1.212,0,0,1,.273.646l-.676.243V17.688a1.124,1.124,0,0,1,.318-.815A1.07,1.07,0,0,1,109.754,16.543Zm-3.787,12a2.548,2.548,0,0,0,1.444-.412,2.807,2.807,0,0,0,.967-1.125,3.607,3.607,0,0,0,.347-1.594,3.657,3.657,0,0,0-.347-1.613,2.777,2.777,0,0,0-.967-1.125,2.543,2.543,0,0,0-1.444-.412,2.514,2.514,0,0,0-1.426.412,2.808,2.808,0,0,0-.967,1.125,3.657,3.657,0,0,0-.347,1.613,3.613,3.613,0,0,0,.347,1.594,2.763,2.763,0,0,0,.967,1.125A2.51,2.51,0,0,0,105.967,28.544Z" fill="#fff"></path><path id="Path_8" data-name="Path 8" d="M113.3,18.362a.581.581,0,0,1-.395-.15.5.5,0,0,1-.169-.4.478.478,0,0,1,.169-.374.573.573,0,0,1,.395-.15h8.925a.584.584,0,0,1,.395.15.5.5,0,0,1,.168.393.475.475,0,0,1-.168.385.6.6,0,0,1-.395.141Zm4.462,12.06a.561.561,0,0,1-.582-.561V17.913h1.162V29.858a.539.539,0,0,1-.168.393A.559.559,0,0,1,117.76,30.421Z" fill="#fff"></path><path id="Path_9" data-name="Path 9" d="M129.276,20.762a3.281,3.281,0,0,1,1.912.507,2.976,2.976,0,0,1,1.079,1.37,5.107,5.107,0,0,1,.347,1.912v5.307a.577.577,0,0,1-.564.561.522.522,0,0,1-.411-.168.572.572,0,0,1-.15-.393V24.551a3.9,3.9,0,0,0-.235-1.388,2.066,2.066,0,0,0-.758-.985,2.422,2.422,0,0,0-1.407-.366,3.189,3.189,0,0,0-1.491.366,3.1,3.1,0,0,0-1.135.985,2.378,2.378,0,0,0-.43,1.388v5.307a.575.575,0,0,1-.563.561.523.523,0,0,1-.412-.168.576.576,0,0,1-.149-.393V17.106a.564.564,0,0,1,.16-.395.567.567,0,0,1,.806,0,.557.557,0,0,1,.16.395v6.076l-.432.657a2.532,2.532,0,0,1,.366-1.135,3.881,3.881,0,0,1,.852-.993,4.222,4.222,0,0,1,1.162-.694A3.473,3.473,0,0,1,129.276,20.762Z" fill="#fff"></path><path id="Path_10" data-name="Path 10" d="M139.813,30.608a5.127,5.127,0,0,1-2.55-.619,4.381,4.381,0,0,1-1.725-1.725,5.223,5.223,0,0,1-.62-2.588,5.509,5.509,0,0,1,.628-2.719,4.6,4.6,0,0,1,1.632-1.735,4.041,4.041,0,0,1,2.128-.609,4.557,4.557,0,0,1,1.6.291,4.005,4.005,0,0,1,1.378.863,4.488,4.488,0,0,1,.975,1.4,4.852,4.852,0,0,1,.4,1.912.512.512,0,0,1-.169.385.555.555,0,0,1-.393.16h-7.52l-.224-1.012h7.389l-.243.225v-.374a2.856,2.856,0,0,0-.582-1.5,3.183,3.183,0,0,0-1.173-.937,3.369,3.369,0,0,0-1.434-.318,3.233,3.233,0,0,0-1.153.225,3.015,3.015,0,0,0-1.069.7,3.628,3.628,0,0,0-.777,1.218,4.664,4.664,0,0,0-.3,1.754,4.415,4.415,0,0,0,.449,2.006,3.467,3.467,0,0,0,1.295,1.426,3.8,3.8,0,0,0,2.043.526,3.38,3.38,0,0,0,2.091-.684,3.672,3.672,0,0,0,.665-.646.632.632,0,0,1,.393-.168.458.458,0,0,1,.347.15.483.483,0,0,1,.141.337.513.513,0,0,1-.187.393,5.025,5.025,0,0,1-1.463,1.172A4.024,4.024,0,0,1,139.813,30.608Z" fill="#fff"></path><path id="Path_11" data-name="Path 11" d="M150.295,20.762a3.255,3.255,0,0,1,1.988.609,3.081,3.081,0,0,1,1.124,1.81l-.262.075.112-.337a3.036,3.036,0,0,1,.815-1.06,4.671,4.671,0,0,1,1.3-.8,3.886,3.886,0,0,1,1.482-.3,3.243,3.243,0,0,1,1.9.507,2.859,2.859,0,0,1,1.05,1.359,5.342,5.342,0,0,1,.328,1.923V29.86a.555.555,0,0,1-.16.393.567.567,0,0,1-.806,0,.555.555,0,0,1-.16-.393V24.61a3.925,3.925,0,0,0-.243-1.407A2.147,2.147,0,0,0,158,22.19a2.38,2.38,0,0,0-1.408-.374,3.082,3.082,0,0,0-1.471.374,3.2,3.2,0,0,0-1.143,1.012,2.424,2.424,0,0,0-.441,1.407v5.25a.555.555,0,0,1-.16.393.568.568,0,0,1-.807,0,.555.555,0,0,1-.16-.393V24.553a4.045,4.045,0,0,0-.224-1.388,2.061,2.061,0,0,0-.732-.985,2.3,2.3,0,0,0-1.369-.366,3.127,3.127,0,0,0-2.559,1.351,2.408,2.408,0,0,0-.422,1.388V29.86a.575.575,0,0,1-.563.561.523.523,0,0,1-.412-.168.572.572,0,0,1-.15-.393v-8.4a.544.544,0,0,1,.161-.393.566.566,0,0,1,.806,0,.555.555,0,0,1,.16.393V23.2l-.507.694a2.927,2.927,0,0,1,.366-1.124,3.8,3.8,0,0,1,.814-1.012,4.12,4.12,0,0,1,1.154-.721A3.436,3.436,0,0,1,150.295,20.762Z" fill="#fff"></path><path id="Path_12" data-name="Path 12" d="M167.342,30.608a5.128,5.128,0,0,1-2.551-.619,4.388,4.388,0,0,1-1.725-1.725,5.233,5.233,0,0,1-.619-2.588,5.519,5.519,0,0,1,.627-2.719,4.6,4.6,0,0,1,1.632-1.735,4.042,4.042,0,0,1,2.129-.609,4.543,4.543,0,0,1,1.6.291,4,4,0,0,1,1.378.863,4.471,4.471,0,0,1,.975,1.4,4.817,4.817,0,0,1,.393,1.912.509.509,0,0,1-.169.385.555.555,0,0,1-.394.16H163.1l-.224-1.012h7.389l-.243.225v-.374a2.848,2.848,0,0,0-.582-1.5,3.187,3.187,0,0,0-1.172-.937,3.377,3.377,0,0,0-1.435-.318,3.242,3.242,0,0,0-1.153.225,3.029,3.029,0,0,0-1.068.7,3.63,3.63,0,0,0-.778,1.218,4.684,4.684,0,0,0-.3,1.754,4.4,4.4,0,0,0,.451,2.006,3.474,3.474,0,0,0,1.295,1.426,3.8,3.8,0,0,0,2.043.526,3.38,3.38,0,0,0,2.091-.684,3.64,3.64,0,0,0,.665-.646.632.632,0,0,1,.4-.168.457.457,0,0,1,.347.15.48.48,0,0,1,.142.337.514.514,0,0,1-.188.393,5,5,0,0,1-1.463,1.172A4.02,4.02,0,0,1,167.342,30.608Z" fill="#fff"></path><path id="Path_13" data-name="Path 13" d="M172.968,28.9a.729.729,0,0,1-.141-.441.415.415,0,0,1,.235-.347.443.443,0,0,1,.347-.112.6.6,0,0,1,.366.187A3.951,3.951,0,0,0,175,29.249a3.471,3.471,0,0,0,1.717.4,3.187,3.187,0,0,0,1.041-.179,2.025,2.025,0,0,0,.852-.545,1.461,1.461,0,0,0,0-1.867,2.359,2.359,0,0,0-.871-.563,9.662,9.662,0,0,0-1.134-.355c-.424-.112-.838-.241-1.237-.385a4.268,4.268,0,0,1-1.06-.545,2.638,2.638,0,0,1-.74-.8,2.188,2.188,0,0,1-.281-1.143,2.329,2.329,0,0,1,.43-1.388,2.871,2.871,0,0,1,1.173-.937,4.016,4.016,0,0,1,1.679-.337,4.648,4.648,0,0,1,1.012.123,4.215,4.215,0,0,1,1.069.4,3.216,3.216,0,0,1,.937.769.528.528,0,0,1,.169.385.509.509,0,0,1-.187.384.567.567,0,0,1-.348.112.418.418,0,0,1-.328-.15,2.968,2.968,0,0,0-1.068-.769,3.383,3.383,0,0,0-1.333-.262,2.923,2.923,0,0,0-1.022.179,2,2,0,0,0-.8.534,1.355,1.355,0,0,0-.318.937,1.3,1.3,0,0,0,.384.881,2.773,2.773,0,0,0,.919.563,11.53,11.53,0,0,0,1.284.412,10.84,10.84,0,0,1,1.154.355,4.021,4.021,0,0,1,.975.515,2.322,2.322,0,0,1,.675.777A2.462,2.462,0,0,1,180,27.944a2.281,2.281,0,0,1-.46,1.426,2.89,2.89,0,0,1-1.228.919,4.424,4.424,0,0,1-1.706.318,5.064,5.064,0,0,1-1.96-.393A4.179,4.179,0,0,1,172.968,28.9Z" fill="#fff"></path></g></svg>